<svg width="124" height="113" viewBox="0 0 124 113" fill="none" xmlns="http://www.w3.org/2000/svg">
<path d="M55.1865 82.5986C58.4802 84.6042 61.5088 86.7127 64.7651 88.3813C70.8878 91.5191 77.2538 94.0549 84.3091 93.8615C85.7594 93.821 87.2503 93.3375 88.6165 92.7886C90.5347 92.0213 91.3332 90.3526 91.355 88.347C91.3768 86.4319 90.6002 84.7539 88.8629 84.0022C85.8343 82.686 82.7277 81.4883 79.5619 80.5525C73.7417 78.8277 67.7844 77.5084 62.4788 74.4018C58.3555 71.9876 55.1522 68.7376 54.0512 63.9062C51.9614 54.7549 53.7892 46.5456 60.4827 39.7897C65.2143 35.0113 71.1779 32.3976 77.6904 30.9378C85.2479 29.2442 92.874 29.3003 100.456 30.3982C106.052 31.2061 111.492 32.8373 116.626 35.3139C118.534 36.2371 120.446 37.1603 122.355 38.0805C123.372 38.5701 123.297 39.2158 122.783 40.0985C119.592 45.5568 116.417 51.0276 113.301 56.5296C112.627 57.7211 112.125 57.9862 110.787 57.2314C104.034 53.4199 96.9724 50.3227 89.2652 49.0221C87.5435 48.732 85.7376 48.7663 83.9816 48.8724C81.845 49.0002 80.0235 50.5005 79.6586 52.1442C79.1782 54.312 80.2169 56.8135 82.5468 57.7991C85.9247 59.2276 89.468 60.2569 92.927 61.4952C98.2325 63.3915 103.834 64.6236 108.6 67.7832C114.099 71.4262 117.549 76.3418 117.514 83.2692C117.496 87.1181 117.465 90.8797 116.042 94.5976C114.03 99.8657 110.665 103.886 105.952 106.809C99.8638 110.583 93.1422 112.242 86.037 112.807C79.119 113.359 72.335 112.701 65.654 111.041C58.8264 109.344 52.3232 106.781 46.4376 102.819C44.7408 101.678 44.6067 101.525 45.5767 99.7409C48.571 94.2296 51.6246 88.7494 54.6625 83.2599C54.8091 82.9948 55.0368 82.7733 55.1772 82.5986H55.1865Z" fill="#1E1E1E"/>
<path d="M0 13.6583C1.56888 13.6583 2.91007 13.6583 4.25126 13.6583C11.581 13.6552 18.9077 13.6739 26.2374 13.624C27.4757 13.6146 27.8968 14.0014 28.0746 15.2615C29.2754 23.7453 30.576 32.2167 31.8455 40.6942C33.0307 48.5979 34.2097 56.5047 35.4043 64.4052C35.5166 65.1507 35.7225 65.8837 35.9876 67.1063C36.5864 66.18 36.9919 65.6747 37.2664 65.1101C42.1134 55.1136 46.9635 45.1202 51.7793 35.108C57.1784 23.8826 62.5525 12.6477 67.9173 1.40357C68.3259 0.552072 68.7126 -0.00935638 69.8324 7.61007e-07C77.7329 0.0561436 85.6335 0.0311912 93.5309 0.0436674C93.9333 0.0436674 94.3356 0.115406 94.9719 0.177787C94.6413 0.848382 94.4074 1.39733 94.1173 1.91198C90.0594 9.04212 85.9859 16.166 81.9436 23.3055C81.3479 24.3566 80.6648 24.9805 79.3704 25.2206C72.5366 26.4901 66.1737 28.9635 60.7653 33.4268C51.3083 41.2369 47.5936 51.3239 49.4712 63.3915C50.0358 67.0252 51.6483 70.3314 54.1467 73.1074C54.783 73.8154 54.7611 74.3706 54.3338 75.1753C51.1992 81.0859 48.0895 87.0121 45.0328 92.9664C44.5899 93.8303 44.1252 94.1641 43.1458 94.161C35.0363 94.1235 26.9299 94.1142 18.8203 94.1672C17.5634 94.1766 17.0331 93.8584 16.7555 92.5422C12.8006 73.7437 8.78324 54.9576 4.76903 36.1716C3.32802 29.4282 1.8496 22.6911 0.396119 15.9477C0.255762 15.2958 0.168429 14.6346 0 13.6583Z" fill="#1E1E1E"/>
</svg>
